<?xml version="1.0" encoding="UTF-8"?>
<!DOCTYPE svg PUBLIC "-//W3C//DTD SVG 1.1//EN" "http://www.w3.org/Graphics/SVG/1.1/DTD/svg11.dtd">
<!-- Creator: CorelDRAW 2019 (64-Bit) -->
<svg xmlns="http://www.w3.org/2000/svg" xml:space="preserve" width="2975px" height="480px" version="1.1" style="shape-rendering:geometricPrecision; text-rendering:geometricPrecision; image-rendering:optimizeQuality; fill-rule:evenodd; clip-rule:evenodd"
viewBox="0 0 2975 480.02"
 xmlns:xlink="http://www.w3.org/1999/xlink"
 xmlns:xodm="http://www.corel.com/coreldraw/odm/2003">
 <defs>
  <style type="text/css">
   <![CDATA[
    .fil0 {fill:#E31D53}
   ]]>
  </style>
 </defs>
 <g id="Layer_x0020_1">
  <metadata id="CorelCorpID_0Corel-Layer"/>
  <g id="_3109707906496">
   <path class="fil0" d="M2245.92 385.21c50.75,43.19 127,20.81 154.54,-43.59 28.75,-67.22 19.56,-157.58 -52.35,-192.75 -47.89,-23.43 -175.77,-7.91 -177.61,8.91l-0.01 322.24 75.43 0 0 -94.81zm0.03 -62.97c19.66,26.4 66.9,20.26 83.44,-3.51 18.32,-26.34 21.48,-79.43 -3.77,-102.05 -18.23,-16.33 -53.23,-19.56 -79.69,-6.41l0.02 111.97z"/>
   <path class="fil0" d="M635.08 401.71c151.83,17.7 214.11,0.31 235.1,-75.4 24.36,-87.85 -24.84,-226.02 -164.56,-162.27l0 -85.75 -70.54 0.01 0 323.41zm70.54 -178.78l0 112.72c3.64,12.78 100.33,20.59 102.88,-56.35 1.55,-46.67 -48.91,-93.24 -102.88,-56.37z"/>
   <path class="fil0" d="M1359.26 275.99l95.06 -126.21 -78.3 0.01 -74.12 102.68c-1.31,1.81 -3.53,2.54 -5.66,1.86 -2.12,-0.69 -3.5,-2.58 -3.5,-4.81l-0.03 -171.19 -73.64 -0.02 -0.04 331.4 73.68 0.01 -0.01 -97.87c0,-2.22 1.36,-4.1 3.46,-4.8 2.11,-0.7 4.32,-0.01 5.65,1.77l75.42 100.9 81.43 0 -99.35 -127.58c-1.42,-1.83 -1.44,-4.3 -0.05,-6.15z"/>
   <path class="fil0" d="M1627.09 278.71l-0.2 49.23c-0.11,11.08 -27.25,28.9 -58.14,19.99 -43.69,-12.6 -30.76,-82.17 58.34,-69.22zm82.9 123.09l8.52 -44.05c-14.13,-4.48 -26.05,-11.18 -25.53,-28.48 2.72,-90.66 16.31,-136.69 -31.11,-169.01 -27.94,-19.04 -75.46,-24.07 -167.7,-3.79l14.98 50.36c24.12,-2.8 121.7,-27.62 120.87,24.98 -45.64,-1.32 -94.13,0.3 -133.29,29.23 -45.11,33.33 -38,104.88 4.05,134.39 28.45,19.98 86.27,22.02 128.39,-16.62 22.88,28.77 59.89,32.9 80.82,22.99z"/>
   <path class="fil0" d="M1175.62 356.45c-17.53,-3.19 -22.45,-8.5 -22.44,-26.78l0.04 -179.88 -70.14 0.01 0 165.33c0,20.91 -21.57,32.37 -41.26,32.66 -25.06,0.38 -49.58,-16.26 -49.68,-43.18l-0.02 -154.82 -69.35 0 0.01 175.2c3.52,64.92 68.22,116.21 164.1,57.98 23.35,26.06 52.86,24.66 80.37,20.59l8.37 -47.11z"/>
   <rect class="fil0" x="1761.41" y="77.68" width="72.4" height="331.16"/>
   <path class="fil0" d="M2037.42 278.71l-0.19 49.23c-0.12,11.08 -27.26,28.9 -58.15,19.99 -43.69,-12.6 -30.76,-82.17 58.34,-69.22zm82.91 123.09l8.51 -44.05c-14.13,-4.48 -26.04,-11.18 -25.53,-28.48 2.72,-90.66 16.31,-136.69 -31.11,-169.01 -27.93,-19.04 -75.46,-24.07 -167.69,-3.79l14.97 50.36c24.12,-2.8 121.7,-27.62 120.87,24.98 -45.63,-1.32 -94.13,0.3 -133.29,29.23 -45.11,33.33 -37.99,104.88 4.05,134.39 28.46,19.98 86.27,22.02 128.39,-16.62 22.88,28.77 59.89,32.9 80.83,22.99z"/>
   <path class="fil0" d="M2601.89 278.71l-0.19 49.23c-0.12,11.08 -27.26,28.9 -58.15,19.99 -43.69,-12.6 -30.76,-82.17 58.34,-69.22zm82.91 123.09l8.52 -44.05c-14.14,-4.48 -26.05,-11.18 -25.54,-28.48 2.72,-90.66 16.31,-136.69 -31.11,-169.01 -27.93,-19.04 -75.46,-24.07 -167.69,-3.79l14.97 50.36c24.12,-2.8 121.7,-27.62 120.87,24.98 -45.63,-1.32 -94.13,0.3 -133.29,29.23 -45.11,33.33 -37.99,104.88 4.06,134.39 28.45,19.98 86.26,22.02 128.38,-16.62 22.88,28.77 59.89,32.9 80.83,22.99z"/>
   <path class="fil0" d="M2875.61 275.99l95.06 -126.21 -78.31 0.01 -74.11 102.68c-1.31,1.81 -3.54,2.54 -5.66,1.86 -2.12,-0.69 -3.5,-2.58 -3.5,-4.81l-0.03 -171.19 -73.64 -0.02 -0.04 331.4 73.67 0.01 0 -97.87c0,-2.22 1.36,-4.1 3.46,-4.8 2.1,-0.7 4.32,-0.01 5.65,1.77l75.42 100.9 81.42 0 -99.34 -127.58c-1.42,-1.83 -1.45,-4.3 -0.05,-6.15z"/>
   <path class="fil0" d="M25.57 26.93l75.35 -24.94c10.32,-3.42 20.52,-2.42 29.98,2.95 9.46,5.36 15.55,13.6 17.92,24.22l52.56 236c4.12,18.5 -6.18,36.94 -24.09,43.14l-30.71 10.64c-18.34,6.35 -38.36,-2.4 -46.15,-20.17l-97.19 -221.7c-4.35,-9.92 -4.32,-20.11 0.09,-30 4.4,-9.9 11.96,-16.74 22.24,-20.14z"/>
   <circle class="fil0" transform="matrix(0.827277 -0.00595056 0.00595057 0.827276 193.008 415.621)" r="75.63"/>
   <path class="fil0" d="M322.34 312.62c-1,0.57 -10.07,4.41 -19.64,8.19 -16.83,6.66 -24.5,26.28 -17.85,43.11l13.5 34.19c3.5,8.86 9.72,15.23 18.49,18.95 8.78,3.73 16.9,2.53 25.84,-0.77 74.12,-27.38 121.86,-92.45 115.09,-173.22 -6.96,-83.05 -68.58,-144.05 -143.43,-156.22 -26.88,-4.37 -48.87,-2.58 -74.2,2.09 -5.59,1.03 -14.47,3.6 -17.58,8.36 -3.1,4.75 -3.95,10.04 -2.48,15.52l17.63 65.92c2.45,9.16 11.7,15.14 20.9,12.86 14.23,-3.54 26.84,-3.65 36.06,-2.97 34.77,2.56 57.26,31.44 59.83,60.71 2.58,29.27 -7.46,47.99 -32.16,63.28z"/>
  </g>
 </g>
</svg>
